<svg width="589" height="110" xmlns="http://www.w3.org/2000/svg"><path d="M0 109.988h96.587V83.889h-69.95V66.487h64.791V43.988H26.637V26.587h68.391v-25.2H0v108.601m108.505-28.925c0 23.298 9.719 28.937 33.956 28.937h32.276c35.395 0 43.314-4.748 43.314-33.686 0-31.311-9.599-34.427-50.993-34.279-28.557.148-31.796-.148-31.796-9.497 0-5.788 4.079-8.311 10.079-8.311h29.516c12.238 0 12.958 3.265 12.958 11.13h26.636v-3.413c0-18.846-2.879-31.757-33.595-31.757h-37.195c-33.596 0-35.036 14.988-35.036 34.428 0 26.414 4.56 32.351 44.634 32.351 34.316 0 37.436.593 37.436 9.942 0 8.311-5.76 9.053-11.399 9.053h-32.635c-7.68 0-11.399-.892-11.519-12.317h-26.637v7.419m144.02 28.925h30.596l20.277-71.7h.24l20.277 71.7h30.596L382.707 1.387h-26.036l-18.477 79.8h-.24l-22.078-79.8H291.16l-22.077 79.8h-.24l-18.478-79.8h-26.036l28.196 108.601m181.816-83.401l17.278 40.801h-34.076l16.798-40.801zm-64.311 83.401h29.756l7.799-19.2h53.993l8.279 19.2h29.636L451.739 1.387h-34.675L370.03 109.988zm116.583-81.6h37.435v81.6h26.637v-81.6h37.435V1.387H486.613v27.001" fill-rule="evenodd"/></svg>